# This file uses centimeters as units for non-parametric coordinates.

mtllib 11.mtl
g default
v 0.829145 5.740428 -0.829145
v -0.000000 5.740428 -1.172588
v -0.829145 5.740428 -0.829145
v -1.172588 5.740428 0.000000
v -0.829145 5.740428 0.829145
v -0.000000 5.740428 1.172588
v 0.829145 5.740428 0.829145
v 1.172588 5.740428 0.000000
v -0.000000 6.883328 0.000000
vt 0.099249 0.098586
vt 0.334049 0.001328
vt 0.568848 0.098585
vt 0.666105 0.333385
vt 0.568848 0.568185
vt 0.334049 0.665442
vt 0.099249 0.568185
vt 0.001992 0.333385
vt 0.674358 0.568184
vt 0.674358 0.333385
vt 0.998008 0.333385
vt 0.674358 0.098585
vt 0.674358 0.665442
vt 0.674358 0.001328
vt 0.674358 0.568184
vt 0.674358 0.098585
vt 0.674358 0.333385
vn 0.000000 -1.000000 0.000000
vn 0.000000 -1.000000 0.000000
vn 0.000000 -1.000000 0.000000
vn 0.000000 -1.000000 0.000000
vn 0.000000 -1.000000 0.000000
vn 0.000000 -1.000000 0.000000
vn 0.000000 -1.000000 0.000000
vn 0.000000 -1.000000 0.000000
vn 0.277739 0.687940 -0.670522
vn 0.277739 0.687940 -0.670522
vn 0.277739 0.687940 -0.670522
vn -0.277739 0.687940 -0.670522
vn -0.277739 0.687940 -0.670522
vn -0.277739 0.687940 -0.670522
vn -0.670522 0.687940 -0.277739
vn -0.670522 0.687940 -0.277739
vn -0.670522 0.687940 -0.277739
vn -0.670522 0.687940 0.277739
vn -0.670522 0.687940 0.277739
vn -0.670522 0.687940 0.277739
vn -0.277739 0.687940 0.670522
vn -0.277739 0.687940 0.670522
vn -0.277739 0.687940 0.670522
vn 0.277739 0.687940 0.670522
vn 0.277739 0.687940 0.670522
vn 0.277739 0.687940 0.670522
vn 0.670522 0.687940 0.277739
vn 0.670522 0.687940 0.277739
vn 0.670522 0.687940 0.277739
vn 0.670522 0.687940 -0.277739
vn 0.670522 0.687940 -0.277739
vn 0.670522 0.687940 -0.277739
s off
g pCone1
usemtl initialShadingGroup
f 1/1/1 8/2/2 7/3/3 6/4/4 5/5/5 4/6/6 3/7/7 2/8/8
f 1/15/9 2/13/10 9/11/11
f 2/13/12 3/9/13 9/11/14
f 3/9/15 4/10/16 9/11/17
f 4/10/18 5/12/19 9/11/20
f 5/12/21 6/14/22 9/11/23
f 6/14/24 7/16/25 9/11/26
f 7/16/27 8/17/28 9/11/29
f 8/17/30 1/15/31 9/11/32
