# This file uses centimeters as units for non-parametric coordinates.

mtllib 2.mtl
g default
v 2.019032 0.333302 -2.019032
v 0.000000 0.333302 -2.855342
v -2.019032 0.333302 -2.019032
v -2.855342 0.333302 0.000000
v -2.019032 0.333302 2.019032
v 0.000000 0.333302 2.855342
v 2.019032 0.333302 2.019032
v 2.855342 0.333302 0.000000
v 2.019032 0.557946 -2.019032
v 0.000000 0.557946 -2.855342
v -2.019032 0.557946 -2.019032
v -2.855342 0.557946 0.000000
v -2.019032 0.557946 2.019032
v 0.000000 0.557946 2.855342
v 2.019032 0.557946 2.019032
v 2.855342 0.557946 0.000000
v 0.000000 0.333302 0.000000
v 0.000000 0.557946 0.000000
vt 0.241757 0.001992
vt 0.358299 0.001992
vt 0.358299 0.331625
vt 0.241757 0.331625
vt 0.474842 0.001992
vt 0.474842 0.331625
vt 0.656761 0.335184
vt 0.773304 0.335184
vt 0.773304 0.664817
vt 0.656761 0.664817
vt 0.889847 0.335184
vt 0.889847 0.664817
vt 0.486474 0.335184
vt 0.603017 0.383457
vt 0.486474 0.500000
vt 0.651291 0.500000
vt 0.369931 0.383457
vt 0.603017 0.616543
vt 0.321658 0.500000
vt 0.486474 0.664817
vt 0.369931 0.616543
vt 0.283135 0.716649
vt 0.331409 0.833192
vt 0.166592 0.833192
vt 0.283135 0.949735
vt 0.166592 0.668375
vt 0.166592 0.998008
vt 0.050050 0.716649
vt 0.050050 0.949735
vt 0.001776 0.833192
vt 0.234862 0.331625
vt 0.118319 0.331625
vt 0.118319 0.001992
vt 0.234862 0.001992
vt 0.001776 0.331625
vt 0.001776 0.001992
vt 0.481563 0.001992
vt 0.598106 0.001992
vt 0.598106 0.331625
vt 0.481563 0.331625
vt 0.714649 0.001992
vt 0.714649 0.331625
vn 0.382683 0.000000 -0.923880
vn 0.382683 0.000000 -0.923880
vn 0.382683 0.000000 -0.923880
vn 0.382683 0.000000 -0.923880
vn -0.382683 0.000000 -0.923880
vn -0.382683 0.000000 -0.923880
vn -0.382683 0.000000 -0.923880
vn -0.382683 0.000000 -0.923880
vn -0.923880 0.000000 -0.382683
vn -0.923880 0.000000 -0.382683
vn -0.923880 0.000000 -0.382683
vn -0.923880 0.000000 -0.382683
vn -0.923880 0.000000 0.382683
vn -0.923880 0.000000 0.382683
vn -0.923880 0.000000 0.382683
vn -0.923880 0.000000 0.382683
vn -0.382683 0.000000 0.923879
vn -0.382683 0.000000 0.923879
vn -0.382683 0.000000 0.923879
vn -0.382683 0.000000 0.923879
vn 0.382683 0.000000 0.923880
vn 0.382683 0.000000 0.923880
vn 0.382683 0.000000 0.923880
vn 0.382683 0.000000 0.923880
vn 0.923880 0.000000 0.382683
vn 0.923880 0.000000 0.382683
vn 0.923880 0.000000 0.382683
vn 0.923880 0.000000 0.382683
vn 0.923880 0.000000 -0.382684
vn 0.923880 0.000000 -0.382684
vn 0.923880 0.000000 -0.382684
vn 0.923880 0.000000 -0.382684
vn 0.000000 -1.000000 0.000000
vn 0.000000 -1.000000 0.000000
vn 0.000000 -1.000000 0.000000
vn 0.000000 -1.000000 0.000000
vn 0.000000 -1.000000 0.000000
vn 0.000000 -1.000000 0.000000
vn 0.000000 -1.000000 0.000000
vn 0.000000 -1.000000 0.000000
vn 0.000000 -1.000000 0.000000
vn 0.000000 1.000000 0.000000
vn 0.000000 1.000000 0.000000
vn 0.000000 1.000000 0.000000
vn 0.000000 1.000000 0.000000
vn 0.000000 1.000000 0.000000
vn 0.000000 1.000000 0.000000
vn 0.000000 1.000000 0.000000
vn 0.000000 1.000000 0.000000
vn 0.000000 1.000000 0.000000
s off
g pCylinder1
usemtl initialShadingGroup
f 1/31/1 2/32/2 10/33/3 9/34/4
f 2/32/5 3/35/6 11/36/7 10/33/8
f 3/1/9 4/2/10 12/3/11 11/4/12
f 4/2/13 5/5/14 13/6/15 12/3/16
f 5/37/17 6/38/18 14/39/19 13/40/20
f 6/38/21 7/41/22 15/42/23 14/39/24
f 7/7/25 8/8/26 16/9/27 15/10/28
f 8/8/29 1/11/30 9/12/31 16/9/32
s 1
f 2/13/33 1/14/34 17/15/35
f 3/17/36 2/13/33 17/15/35
f 4/19/37 3/17/36 17/15/35
f 5/21/38 4/19/37 17/15/35
f 6/20/39 5/21/38 17/15/35
f 7/18/40 6/20/39 17/15/35
f 8/16/41 7/18/40 17/15/35
f 1/14/34 8/16/41 17/15/35
s 2
f 9/22/42 10/23/43 18/24/44
f 10/23/43 11/25/45 18/24/44
f 11/25/45 12/27/46 18/24/44
f 12/27/46 13/29/47 18/24/44
f 13/29/47 14/30/48 18/24/44
f 14/30/48 15/28/49 18/24/44
f 15/28/49 16/26/50 18/24/44
f 16/26/50 9/22/42 18/24/44
