# This file uses centimeters as units for non-parametric coordinates.

mtllib 3.mtl
g default
v 1.539212 0.373184 -1.539212
v 1.908738 0.373184 -1.539212
v 1.539212 4.213464 -1.539212
v 1.908738 4.213464 -1.539212
v 1.539212 4.213464 -1.908738
v 1.908738 4.213464 -1.908738
v 1.539212 0.373184 -1.908738
v 1.908738 0.373184 -1.908738
vt 0.207867 0.001992
vt 0.303708 0.001992
vt 0.303708 0.998008
vt 0.207867 0.998008
vt 0.311097 0.001992
vt 0.406937 0.001992
vt 0.406937 0.998008
vt 0.311097 0.998008
vt 0.414326 0.097832
vt 0.414326 0.001992
vt 0.510166 0.001992
vt 0.510166 0.097832
vt 0.517555 0.001992
vt 0.613396 0.001992
vt 0.613396 0.097832
vt 0.517555 0.097832
vt 0.001224 0.001992
vt 0.097065 0.001992
vt 0.097065 0.998008
vt 0.001224 0.998008
vt 0.104638 0.001992
vt 0.200478 0.001992
vt 0.200478 0.998008
vt 0.104638 0.998008
vn 0.000000 0.000000 1.000000
vn 0.000000 0.000000 1.000000
vn 0.000000 0.000000 1.000000
vn 0.000000 0.000000 1.000000
vn 0.000000 1.000000 0.000000
vn 0.000000 1.000000 0.000000
vn 0.000000 1.000000 0.000000
vn 0.000000 1.000000 0.000000
vn 0.000000 0.000000 -1.000000
vn 0.000000 0.000000 -1.000000
vn 0.000000 0.000000 -1.000000
vn 0.000000 0.000000 -1.000000
vn 0.000000 -1.000000 0.000000
vn 0.000000 -1.000000 0.000000
vn 0.000000 -1.000000 0.000000
vn 0.000000 -1.000000 0.000000
vn 1.000000 0.000000 0.000000
vn 1.000000 0.000000 0.000000
vn 1.000000 0.000000 0.000000
vn 1.000000 0.000000 0.000000
vn -1.000000 0.000000 0.000000
vn -1.000000 0.000000 0.000000
vn -1.000000 0.000000 0.000000
vn -1.000000 0.000000 0.000000
s off
g pCube5
usemtl initialShadingGroup
f 1/17/1 2/18/2 4/19/3 3/20/4
f 3/9/5 4/10/6 6/11/7 5/12/8
f 5/21/9 6/22/10 8/23/11 7/24/12
f 7/13/13 8/14/14 2/15/15 1/16/16
f 2/1/17 8/2/18 6/3/19 4/4/20
f 7/5/21 1/6/22 3/7/23 5/8/24
