# This file uses centimeters as units for non-parametric coordinates.

mtllib 6.mtl
g default
v 1.118968 3.792146 -1.979016
v 1.149899 3.792146 -2.051885
v 1.118968 4.214800 -1.979016
v 1.149899 4.214800 -2.051885
v 1.046098 4.214800 -2.009947
v 1.077029 4.214800 -2.082817
v 1.046098 3.792146 -2.009947
v 1.077029 3.792146 -2.082817
vt 0.001891 0.668528
vt 0.331370 0.668528
vt 0.331370 0.998008
vt 0.001891 0.998008
vt 0.338705 0.668528
vt 0.668185 0.668528
vt 0.668185 0.998008
vt 0.338705 0.998008
vt 0.338705 0.331472
vt 0.338705 0.001992
vt 0.668185 0.001992
vt 0.668185 0.331472
vt 0.282357 0.335260
vt 0.611836 0.335260
vt 0.611836 0.664740
vt 0.282357 0.664740
vt 0.001891 0.001992
vt 0.331371 0.001992
vt 0.331371 0.331472
vt 0.001891 0.331472
vt 0.617659 0.664740
vt 0.617659 0.335260
vt 0.947139 0.335260
vt 0.947139 0.664740
vn 0.920505 0.000000 0.390731
vn 0.920505 0.000000 0.390731
vn 0.920505 0.000000 0.390731
vn 0.920505 0.000000 0.390731
vn 0.000000 1.000000 0.000000
vn 0.000000 1.000000 0.000000
vn 0.000000 1.000000 0.000000
vn 0.000000 1.000000 0.000000
vn -0.920505 0.000000 -0.390731
vn -0.920505 0.000000 -0.390731
vn -0.920505 0.000000 -0.390731
vn -0.920505 0.000000 -0.390731
vn 0.000000 -1.000000 0.000000
vn 0.000000 -1.000000 0.000000
vn 0.000000 -1.000000 0.000000
vn 0.000000 -1.000000 0.000000
vn 0.390731 0.000000 -0.920505
vn 0.390731 0.000000 -0.920505
vn 0.390731 0.000000 -0.920505
vn 0.390731 0.000000 -0.920505
vn -0.390731 0.000000 0.920505
vn -0.390731 0.000000 0.920505
vn -0.390731 0.000000 0.920505
vn -0.390731 0.000000 0.920505
s off
g pCube32
usemtl initialShadingGroup
f 1/17/1 2/18/2 4/19/3 3/20/4
f 3/9/5 4/10/6 6/11/7 5/12/8
f 5/21/9 6/22/10 8/23/11 7/24/12
f 7/13/13 8/14/14 2/15/15 1/16/16
f 2/1/17 8/2/18 6/3/19 4/4/20
f 7/5/21 1/6/22 3/7/23 5/8/24
